#!OML:ASF H:\ManfredETheater\Project 1\Capture day 1\Session 1\subject.ASF
:FULLY-SPECIFIED
:DEGREES
106
root 9.93377 13.3417 1.05317 -388.782 -81.6689 58.265
lowerback 54.0134 -4.51811 3.35997
upperback 11.6372 -5.32558 0.332242
thorax -8.00407 -3.05657 1.22988
lowerneck 2.75475 -10.6915 -14.0505
upperneck -15.2555 -14.208 14.4246
head -2.85102 -7.48454 6.93753
rclavicle 1.59028e-014 2.65222e-014
rhumerus -18.2403 -9.9993 -71.0901
rradius 49.879
rwrist -7.46892
rhand -27.8975 -6.36312
rfingers 7.12502
rthumb -1.28694 -36.339
lclavicle 1.59028e-014 2.65222e-014
lhumerus -23.9781 7.83371 85.8115
lradius 105.194
lwrist -14.6833
lhand -41.2059 -6.02312
lfingers 7.12502
lthumb -14.1301 23.4764
rfemur -84.2508 -29.6336 3.6417
rtibia 84.911
rfoot -15.8929 -7.78458
rtoes -34.2567
lfemur -40.0328 -0.128862 24.6606
ltibia 46.4288
lfoot 2.35028 -3.94925
ltoes -41.9688
107
root 9.74205 13.3967 0.664137 -399.743 -81.3284 69.1967
lowerback 53.3813 -4.49661 2.96681
upperback 11.4314 -5.54283 -0.0410104
thorax -8.20734 -3.1244 1.09086
lowerneck 2.72044 -10.765 -13.7556
upperneck -15.7591 -14.2615 14.5801
head -2.99335 -7.5443 6.96643
rclavicle 6.27166e-014 2.70005e-014
rhumerus -17.8251 -10.5499 -71.0075
rradius 49.2411
rwrist -7.28872
rhand -28.2835 -6.75333
rfingers 7.12502
rthumb -1.65972 -36.7266
lclavicle 6.27166e-014 2.70005e-014
lhumerus -24.6115 7.80784 86.2301
lradius 103.716
lwrist -13.9452
lhand -41.3336 -7.00175
lfingers 7.12502
lthumb -14.2531 22.4891
rfemur -85.2383 -28.9867 4.39091
rtibia 86.5408
rfoot -17.3637 -7.8936
rtoes -33.5064
lfemur -37.908 -2.67791 24.2643
ltibia 44.1346
lfoot 6.28772 -0.941199
ltoes -40.1232
108
root 9.54691 13.461 0.28387 -409.52 -80.7531 78.7597
lowerback 53.0372 -4.55591 2.70317
upperback 11.1411 -5.78048 -0.450418
thorax -8.53848 -3.19884 0.878577
lowerneck 2.66337 -10.8184 -13.4847
upperneck -16.2781 -14.2892 14.7191
head -3.14037 -7.59011 6.99512
rclavicle 1.74434e-014 -7.11416e-014
rhumerus -17.6255 -10.9985 -70.9167
rradius 48.8552
rwrist -7.32093
rhand -28.6906 -7.08836
rfingers 7.12502
rthumb -2.05286 -37.0582
lclavicle 1.74434e-014 -7.11416e-014
lhumerus -25.3086 7.53277 86.6461
lradius 102.555
lwrist -13.1817
lhand -41.4797 -8.13954
lfingers 7.12502
lthumb -14.3939 21.3414
rfemur -85.7549 -28.3013 5.07325
rtibia 87.9426
rfoot -18.8303 -7.99098
rtoes -32.5628
lfemur -35.8967 -5.28841 23.6493
ltibia 42.1734
lfoot 10.8329 1.20667
ltoes -36.449
109
root 9.34768 13.5347 -0.0874774 -417.757 -80.0508 86.6222
lowerback 52.9505 -4.69707 2.59818
upperback 10.777 -6.02701 -0.864126
thorax -8.9871 -3.27618 0.60705
lowerneck 2.57665 -10.8556 -13.2679
upperneck -16.8024 -14.2995 14.841
head -3.2848 -7.62434 7.02631
rclavicle -7.55382e-015 -2.70223e-014
rhumerus -17.6056 -11.2975 -70.7931
rradius 48.7383
rwrist -7.61261
rhand -29.0844 -7.3032
rfingers 7.12502
rthumb -2.4332 -37.2691
lclavicle -7.55382e-015 -2.70223e-014
lhumerus -26.0724 7.0377 87.0786
lradius 101.75
lwrist -12.4802
lhand -41.6401 -9.35458
lfingers 7.12502
lthumb -14.5484 20.1153
rfemur -85.8009 -27.581 5.74188
rtibia 89.1138
rfoot -20.3192 -8.12969
rtoes -31.5909
lfemur -34.053 -7.84621 22.8421
ltibia 40.6407
lfoot 15.5564 1.93459
ltoes -31.3257
110
root 9.14506 13.6157 -0.450065 -424.642 -79.3058 93.0226
lowerback 53.0447 -4.89689 2.62574
upperback 10.3606 -6.26965 -1.25794
thorax -9.52113 -3.35267 0.304686
lowerneck 2.44866 -10.8827 -13.0684
upperneck -17.3374 -14.3025 14.911
head -3.43099 -7.65175 7.04339
rclavicle 1.28216e-014 -6.1996e-015
rhumerus -17.7079 -11.4456 -70.6324
rradius 48.8798
rwrist -8.11139
rhand -29.4136 -7.36205
rfingers 7.12502
rthumb -2.7511 -37.3241
lclavicle 1.28216e-014 -6.1996e-015
lhumerus -26.8848 6.36583 87.5293
lradius 101.301
lwrist -11.9043
lhand -41.7887 -10.6111
lfingers 7.12502
lthumb -14.6916 18.8484
rfemur -85.4377 -26.8322 6.42156
rtibia 90.0571
rfoot -21.8361 -8.30506
rtoes -30.6513
lfemur -32.4145 -10.2416 21.8665
ltibia 39.6301
lfoot 20.0175 1.09265
ltoes -24.682
111
root 8.94057 13.7015 -0.80364 -430.39 -78.5535 98.265
lowerback 53.1786 -5.12093 2.73727
upperback 9.9195 -6.49021 -1.59902
thorax -10.0898 -3.42243 0.0151131
lowerneck 2.28587 -10.8983 -12.9209
upperneck -17.8802 -14.2967 14.9575
head -3.57411 -7.67133 7.06016
rclavicle 4.7112e-014 1.00138e-014
rhumerus -17.8885 -11.4635 -70.4055
rradius 49.27
rwrist -8.76371
rhand -29.6253 -7.25959
rfingers 7.12502
rthumb -2.95557 -37.2189
lclavicle 4.7112e-014 1.00138e-014
lhumerus -27.7157 5.57259 88.0391
lradius 101.172
lwrist -11.5457
lhand -41.8926 -11.892
lfingers 7.12502
lthumb -14.7917 17.5602
rfemur -84.7913 -26.0901 7.12979
rtibia 90.7816
rfoot -23.3533 -8.50339
rtoes -29.7765
lfemur -31.0681 -12.3063 20.7183
ltibia 39.239
lfoot 23.5368 -1.08299
ltoes -17.8717
112
root 8.73631 13.7889 -1.14918 -435.243 -77.8169 102.688
lowerback 53.2066 -5.32837 2.87068
upperback 9.47923 -6.67214 -1.86915
thorax -10.6431 -3.47936 -0.22706
lowerneck 2.09927 -10.9014 -12.8156
upperneck -18.4464 -14.2812 14.9816
head -3.72141 -7.68359 7.07743
rclavicle -1.07344e-014 -1.51076e-014
rhumerus -18.1094 -11.3647 -70.111
rradius 49.8815
rwrist -9.41071
rhand -29.6918 -7.02671
rfingers 7.12502
rthumb -3.01981 -36.9851
lclavicle -1.07344e-014 -1.51076e-014
lhumerus -28.5427 4.73538 88.5826
lradius 101.314
lwrist -11.4738
lhand -41.8846 -13.2253
lfingers 7.12502
lthumb -14.784 16.2274
rfemur -84.0247 -25.3604 7.89709
rtibia 91.3109
rfoot -24.824 -8.72113
rtoes -28.9882
lfemur -30.0863 -13.8794 19.4223
ltibia 39.5299
lfoot 25.6997 -4.00003
ltoes -12.1701
113
root 8.53401 13.8752 -1.48733 -439.335 -77.1097 106.502
lowerback 53.0103 -5.48459 2.99209
upperback 9.06162 -6.79273 -2.05749
thorax -11.138 -3.51406 -0.410131
lowerneck 1.89657 -10.8954 -12.757
upperneck -19.0355 -14.2555 15.023
head -3.86978 -7.69065 7.10831
rclavicle 1.78906e-014 -3.79182e-014
rhumerus -18.3538 -11.2133 -69.7489
rradius 50.7025
rwrist -9.98732
rhand -29.6056 -6.69683
rfingers 7.12502
rthumb -2.93657 -36.6564
lclavicle 1.78906e-014 -3.79182e-014
lhumerus -29.3246 3.87917 89.1582
lradius 101.656
lwrist -11.7182
lhand -41.7565 -14.6026
lfingers 7.12502
lthumb -14.6605 14.8591
rfemur -83.2815 -24.6562 8.76054
rtibia 91.6749
rfoot -26.2025 -8.95812
rtoes -28.2897
lfemur -29.5316 -14.8377 18.0163
ltibia 40.5252
lfoot 26.4202 -7.10122
ltoes -8.16585
114
root 8.33521 13.9596 -1.81941 -442.736 -76.4262 109.84
lowerback 52.4839 -5.5597 3.06091
upperback 8.68993 -6.8379 -2.148
thorax -11.5271 -3.52068 -0.510061
lowerneck 1.69769 -10.8776 -12.7516
upperneck -19.6724 -14.2166 15.0936
head -4.02893 -7.69212 7.16078
rclavicle 3.18055e-014 5.56597e-014
rhumerus -18.5973 -11.0467 -69.3152
rradius 51.7068
rwrist -10.3666
rhand -29.4248 -6.32297
rfingers 7.12502
rthumb -2.76194 -36.2848
lclavicle 3.18055e-014 5.56597e-014
lhumerus -30.0248 3.03312 89.7647
lradius 102.14
lwrist -12.2367
lhand -41.5383 -15.9865
lfingers 7.12502
lthumb -14.4504 13.4903
rfemur -82.6662 -23.9646 9.7188
rtibia 91.8994
rfoot -27.4511 -9.22399
rtoes -27.6299
lfemur -29.4577 -15.1174 16.5273
ltibia 42.1839
lfoot 25.8779 -10.0434
ltoes -5.96805
115
root 8.14019 14.0418 -2.14691 -445.598 -75.7809 112.857
lowerback 51.6386 -5.56436 3.08951
upperback 8.3548 -6.8172 -2.17565
thorax -11.82 -3.50128 -0.566432
lowerneck 1.51665 -10.8458 -12.7864
upperneck -20.3405 -14.1557 15.221
head -4.1955 -7.68584 7.24172
rclavicle -7.03698e-014 -4.40308e-014
rhumerus -18.862 -10.9072 -68.8613
rradius 52.8838
rwrist -10.5149
rhand -29.2043 -5.92115
rfingers 7.12502
rthumb -2.54899 -35.8857
lclavicle -7.03698e-014 -4.40308e-014
lhumerus -30.6441 2.21484 90.3211
lradius 102.716
lwrist -12.9766
lhand -41.2812 -17.3539
lfingers 7.12502
lthumb -14.2026 12.1406
rfemur -82.2196 -23.2816 10.805
rtibia 92.0099
rfoot -28.538 -9.52645
rtoes -27.0825
lfemur -29.8386 -14.7477 14.9969
ltibia 44.4216
lfoot 24.4381 -12.5792
ltoes -5.10267
116
root 7.94835 14.1234 -2.47201 -448.074 -75.1692 115.679
lowerback 50.5268 -5.50183 3.07802
upperback 8.04596 -6.73665 -2.1689
thorax -12.0294 -3.45697 -0.606621
lowerneck 1.34837 -10.8064 -12.8109
upperneck -21.0216 -14.0806 15.3802
head -4.36835 -7.67673 7.33447
rclavicle -3.06128e-014 -4.77083e-014
rhumerus -19.1704 -10.819 -68.4303
rradius 54.2277
rwrist -10.4444
rhand -29.0706 -5.53418
rfingers 7.12502
rthumb -2.41988 -35.5002
lclavicle -3.06128e-014 -4.77083e-014
lhumerus -31.1833 1.41343 90.79
lradius 103.343
lwrist -13.8441
lhand -41.0397 -18.6336
lfingers 7.12502
lthumb -13.9698 10.8771
rfemur -81.9151 -22.5734 11.9886
rtibia 92.0173
rfoot -29.4603 -9.81442
rtoes -26.5215
lfemur -30.6094 -13.8177 13.4339
ltibia 47.1124
lfoot 22.5143 -14.5293
ltoes -4.91898
117
root 7.75881 14.2057 -2.79601 -450.273 -74.5622 118.352
lowerback 49.234 -5.38414 3.01643
upperback 7.75771 -6.61693 -2.15306
thorax -12.1675 -3.39556 -0.641617
lowerneck 1.18785 -10.7629 -12.8238
upperneck -21.7017 -13.9942 15.5758
head -4.54166 -7.66665 7.43889
rclavicle 2.98177e-014 3.35946e-014
rhumerus -19.5341 -10.7628 -68.0483
rradius 55.7398
rwrist -10.2587
rhand -29.082 -5.17072
rfingers 7.12502
rthumb -2.43093 -35.1366
lclavicle 2.98177e-014 3.35946e-014
lhumerus -31.6353 0.653058 91.1387
lradius 103.973
lwrist -14.7629
lhand -40.8681 -19.7577
lfingers 7.12502
lthumb -13.8045 9.76431
rfemur -81.6793 -21.8452 13.2195
rtibia 91.9286
rfoot -30.1994 -10.0978
rtoes -26.0694
lfemur -31.6817 -12.4778 11.806
ltibia 50.1208
lfoot 20.2523 -15.7197
ltoes -5.70719
118
root 7.56971 14.2919 -3.12055 -452.317 -73.9484 120.865
lowerback 47.0846 -5.19181 2.92267
upperback 8.44899 -6.48181 -2.19864
thorax -12.387 -3.32993 -0.69959
lowerneck 1.02408 -10.7184 -12.801
upperneck -22.3593 -13.9021 15.7796
head -4.71086 -7.65744 7.54033
rclavicle 7.15625e-015 7.37491e-014
rhumerus -19.9635 -10.7576 -67.7395
rradius 57.4094
rwrist -9.98795
rhand -29.26 -4.86624
rfingers 7.12502
rthumb -2.60277 -34.8301
lclavicle 7.15625e-015 7.37491e-014
lhumerus -31.9943 -0.0101865 91.3501
lradius 104.543
lwrist -15.697
lhand -40.7458 -20.715
lfingers 7.12502
lthumb -13.6867 8.81494
rfemur -81.333 -21.1125 14.4292
rtibia 91.7378
rfoot -30.7841 -10.334
rtoes -25.7167
lfemur -32.9001 -10.9345 10.0903
ltibia 53.3087
lfoot 18.1356 -16.1911
ltoes -5.95166
